<svg xmlns="http://www.w3.org/2000/svg" version="1.1" width="30" height="40" fill="#FFFFFF">
<path d="M0 0 C1.8359375 1.28515625 1.8359375 1.28515625 3.375 3.0625 C6.40618342 6.38204822 9.58529079 9.31528885 13.0078125 12.2265625 C14.49089696 13.54679847 15.91946794 14.92877115 17.31640625 16.33984375 C20.36351313 19.36033834 23.54909197 22.15528087 26.8125 24.9375 C27.42834961 25.46384033 28.04419922 25.99018066 28.67871094 26.5324707 C35.91074189 32.89129409 35.91074189 32.89129409 44 38 C44 38.66 44 39.32 44 40 C44.52851563 40.24105469 45.05703125 40.48210937 45.6015625 40.73046875 C48.68631471 42.36327733 51.50259157 44.33990085 54.375 46.3125 C63.48297619 52.48167873 72.98583089 57.96086917 82.47558594 63.51513672 C85.91991639 65.54109589 89.34265704 67.60002083 92.75 69.6875 C93.73484375 70.28949219 94.7196875 70.89148438 95.734375 71.51171875 C98 73 98 73 100 75 C100.05865089 77.67242383 99.99372102 80.22196734 99.828125 82.8828125 C99.7864621 83.68041489 99.74479919 84.47801727 99.70187378 85.29978943 C99.56227037 87.90893398 99.40686437 90.51684033 99.25 93.125 C99.14788217 94.92567765 99.04615836 96.72637769 98.94482422 98.52709961 C98.64920994 103.68599754 98.32959278 108.84317225 98 114 C97.92233398 115.22444824 97.84466797 116.44889648 97.76464844 117.71044922 C94.84997864 161.58639709 90.55416418 214.84326841 69 254 C68.22302073 255.62207036 67.45176492 257.24690044 66.6875 258.875 C58.70949406 274.72706392 48.01588853 288.76514579 36.03515625 301.78125 C34.2045558 303.77699099 32.44163517 305.81230611 30.6875 307.875 C22.5574089 317.169215 13.69040319 325.36360945 4 333 C2.71615145 334.03746018 1.43368337 335.0766302 0.15234375 336.1171875 C-1.1899329 337.20333668 -2.53237969 338.28927565 -3.875 339.375 C-4.50575439 339.88740234 -5.13650879 340.39980469 -5.78637695 340.92773438 C-14.49838198 347.92614993 -14.49838198 347.92614993 -19.8125 348.1875 C-27.4454325 347.02983857 -34.31234686 342.64348912 -41 339 C-42.55267578 338.17628906 -42.55267578 338.17628906 -44.13671875 337.3359375 C-99.56864903 306.63284924 -141.18856585 249.02172656 -158.72143555 189.03295898 C-161.85096473 177.87877918 -164.09563348 166.68349405 -165.875 155.25 C-165.97854797 154.58876129 -166.08209595 153.92752258 -166.18878174 153.24624634 C-168.37138992 139.09326541 -169.25676573 125.00051291 -169.3125 110.6875 C-169.31611542 109.95963287 -169.31973083 109.23176575 -169.32345581 108.48184204 C-169.35486777 92.17600161 -168.23055858 75.94442223 -167.0625 59.6875 C-166.97118805 58.41659515 -166.8798761 57.14569031 -166.78579712 55.83627319 C-166.52020232 52.18598894 -166.24853342 48.53623942 -165.97265625 44.88671875 C-165.84911774 43.24195557 -165.84911774 43.24195557 -165.7230835 41.56396484 C-164.55250569 26.55250569 -164.55250569 26.55250569 -163 25 C-160.3056441 24.90046623 -157.63252428 24.8620547 -154.9375 24.859375 C-153.19358966 24.84510999 -151.44969248 24.82916204 -149.70581055 24.81176758 C-148.31282242 24.7981871 -148.31282242 24.7981871 -146.89169312 24.78433228 C-101.57242876 24.24626914 -53.68262304 18.41031422 -11.24682617 1.77734375 C-7.35499908 0.28674787 -4.16477353 -0.53092014 0 0 Z M-12.25 36.5 C-44.29167457 48.85291864 -78.24956651 53.10127926 -112.26000977 55.56933594 C-113.21390594 55.64334625 -114.16780212 55.71735657 -115.15060425 55.79360962 C-116.95461701 55.93324599 -118.75952722 56.06185968 -120.56521606 56.17782593 C-121.77273026 56.2737352 -121.77273026 56.2737352 -123.00463867 56.37158203 C-123.70691086 56.42089874 -124.40918304 56.47021545 -125.13273621 56.52102661 C-127.51448172 57.13197013 -128.46546047 58.10958456 -130 60 C-130.75828379 62.15284906 -130.75828379 62.15284906 -131.125 64.5625 C-131.27195313 65.34753906 -131.41890625 66.13257813 -131.5703125 66.94140625 C-133.01569215 77.22988142 -133.24245558 87.43814993 -133.25 97.8125 C-133.25067474 98.64880951 -133.25134949 99.48511902 -133.25204468 100.34677124 C-133.16744648 166.82751771 -112.61268042 230.71934849 -66 279 C-65.3507959 279.67643555 -64.7015918 280.35287109 -64.03271484 281.04980469 C-55.39715427 290.00714969 -46.65083809 298.39167745 -36.63330078 305.78564453 C-34.98580817 307.01055159 -33.36424824 308.26400055 -31.74609375 309.52734375 C-22.51182403 317.26177308 -22.51182403 317.26177308 -11.265625 319.796875 C-6.81106606 319.12489524 -3.03338381 317.58329579 1 315.625 C1.73130127 315.2734082 2.46260254 314.92181641 3.21606445 314.55957031 C40.79312939 295.87399424 64.881121 262.18193349 78.0625 223.15625 C80.94538176 214.22825572 83.15315783 205.19353963 85 196 C85.16226074 195.19997559 85.32452148 194.39995117 85.49169922 193.57568359 C88.50911349 180.29538893 88.50911349 180.29538893 87 167 C87.66 167 88.32 167 89 167 C88.98839844 165.97519531 88.97679687 164.95039063 88.96484375 163.89453125 C88.95545978 162.533856 88.94636023 161.17317876 88.9375 159.8125 C88.92912109 159.13896484 88.92074219 158.46542969 88.91210938 157.77148438 C88.8985995 155.00195914 88.92572636 152.3695267 89.47265625 149.6484375 C92.61200248 133.88194311 92.1969085 116.43881238 92.29855347 100.37686157 C92.30782634 98.96273884 92.32189977 97.54863918 92.34085083 96.13461304 C92.3644458 94.15757701 92.36440443 92.1803015 92.36328125 90.203125 C92.36626221 89.07551758 92.36924316 87.94791016 92.37231445 86.78613281 C92.21735385 84.03869353 92.21735385 84.03869353 90.81201172 82.25756836 C88.52120601 80.66770846 86.24152159 79.69637816 83.64453125 78.67578125 C68.2565179 72.48679678 52.9319334 65.91042173 38.4140625 57.8671875 C34.55608111 55.75721598 30.6337267 53.81279728 26.6875 51.875 C21.38989132 49.25970082 16.27036169 46.49292681 11.24609375 43.375 C8.22764092 41.52718192 5.12532764 39.84957628 2.0078125 38.17578125 C0 37 0 37 -2.1328125 35.35546875 C-5.72163129 32.75019653 -8.44151646 34.95022748 -12.25 36.5 Z " fill="#FCFEFD" transform="translate(282,76)"/>
<path d="M0 0 C0.99 0.495 0.99 0.495 2 1 C-6.28285266 12.98434725 -14.96244599 24.57566487 -24 36 C-24.73992187 36.94488281 -25.47984375 37.88976562 -26.2421875 38.86328125 C-31.50358259 45.53280905 -37.03786235 51.96663271 -42.60302734 58.3828125 C-43.84475245 59.82027967 -45.07370479 61.26875812 -46.30078125 62.71875 C-50.16121421 67.2163418 -53.76417661 71.1351155 -59 74 C-69.35035713 71.2140148 -78.57736456 59.81439599 -86.28564453 52.59228516 C-88.08135886 50.92443428 -89.89539945 49.27863313 -91.71484375 47.63671875 C-92.61807373 46.81747925 -92.61807373 46.81747925 -93.53955078 45.98168945 C-94.70225426 44.92801945 -95.86848755 43.87822866 -97.03857422 42.83276367 C-98.39691751 41.595513 -99.70397707 40.30238638 -101 39 C-101 38.34 -101 37.68 -101 37 C-101.598125 36.731875 -102.19625 36.46375 -102.8125 36.1875 C-104.97224808 35.01506533 -106.35790256 33.80630718 -108 32 C-107.67 31.34 -107.34 30.68 -107 30 C-106.48840332 30.31114746 -105.97680664 30.62229492 -105.44970703 30.94287109 C-96.08781121 36.625911 -86.70372066 42.25082868 -77.125 47.5625 C-76.39555176 47.96710449 -75.66610352 48.37170898 -74.91455078 48.78857422 C-67.71326072 53.18258831 -67.71326072 53.18258831 -59.75 55.125 C-54.33832634 53.5014979 -50.44192371 50.41790771 -46 47 C-45.18660156 46.3915625 -44.37320313 45.783125 -43.53515625 45.15625 C-39.37897852 42.00281066 -35.66046834 38.72742812 -32 35 C-31.14019531 34.15179688 -30.28039062 33.30359375 -29.39453125 32.4296875 C-28.54246094 31.58664063 -27.69039063 30.74359375 -26.8125 29.875 C-25.52279297 28.60269531 -25.52279297 28.60269531 -24.20703125 27.3046875 C-21.87938579 25.00850005 -21.87938579 25.00850005 -20 22 C-19.34 22 -18.68 22 -18 22 C-17.73050537 21.40832031 -17.46101074 20.81664062 -17.18334961 20.20703125 C-16.00358836 18.00669254 -14.78295146 16.48754992 -13.06640625 14.6875 C-12.49986328 14.08679688 -11.93332031 13.48609375 -11.34960938 12.8671875 C-10.75986328 12.25101563 -10.17011719 11.63484375 -9.5625 11 C-4.4992025 5.73904826 -4.4992025 5.73904826 0 0 Z " fill="#F7FDFC" transform="translate(343,213)"/>
<path d="M0 0 C0.33 0 0.66 0 1 0 C1.46417512 7.03483184 -0.2467878 13.54953121 -1.8125 20.375 C-2.20405273 22.14617187 -2.20405273 22.14617187 -2.60351562 23.953125 C-4.06906766 30.45221503 -5.76248697 36.72421271 -8 43 C-8.66 42.34 -9.32 41.68 -10 41 C-9.84570312 39.20288086 -9.84570312 39.20288086 -9.28125 37.02734375 C-9.08015625 36.22151855 -8.8790625 35.41569336 -8.671875 34.58544922 C-8.45015625 33.73225098 -8.2284375 32.87905273 -8 32 C-7.59101956 30.29362087 -7.18480476 28.58657668 -6.78125 26.87890625 C-6.14157878 24.22015009 -5.49985782 21.56191362 -4.85546875 18.90429688 C-3.57998906 13.59501485 -2.43775615 8.28406831 -1.44726562 2.91381836 C-1 1 -1 1 0 0 Z " fill="#E3FCFE" transform="translate(369,261)"/>
<path d="M0 0 C0.33 0 0.66 0 1 0 C1.15639125 5.06316683 0.62766071 9.50398438 -0.5 14.4375 C-0.7784375 15.67371094 -1.056875 16.90992188 -1.34375 18.18359375 C-1.5603125 19.11300781 -1.776875 20.04242188 -2 21 C-2.66 21 -3.32 21 -4 21 C-4.33 21.66 -4.66 22.32 -5 23 C-1.53278689 1.53278689 -1.53278689 1.53278689 0 0 Z " fill="#CFF2FD" transform="translate(369,261)"/>
<path d="M0 0 C0.66 0.33 1.32 0.66 2 1 C2.29530838 7.49678438 1.17293889 13.6221448 0 20 C-2.52844602 16.20733097 -2.07485367 14.48023527 -1.6875 10 C-1.58824219 8.7625 -1.48898437 7.525 -1.38671875 6.25 C-1 3 -1 3 0 0 Z " fill="#EAFDFF" transform="translate(371,244)"/>
<path d="M0 0 C4.89685082 0.8315407 7.15867127 3.90480514 10.3125 7.5625 C9.3225 8.2225 8.3325 8.8825 7.3125 9.5625 C7.3125 8.9025 7.3125 8.2425 7.3125 7.5625 C6.6525 7.5625 5.9925 7.5625 5.3125 7.5625 C4.920625 6.7375 4.52875 5.9125 4.125 5.0625 C3.526875 4.2375 2.92875 3.4125 2.3125 2.5625 C-1.31349422 2.14524322 -1.31349422 2.14524322 -4.6875 2.5625 C-2.6875 0.5625 -2.6875 0.5625 0 0 Z " fill="white" transform="translate(278.6875,75.4375)"/>
<path d="M0 0 C0.33 0 0.66 0 1 0 C0.67 3.63 0.34 7.26 0 11 C-1.32 9.68 -2.64 8.36 -4 7 C-3.34 6.67 -2.68 6.34 -2 6 C-1.27306096 4.02111039 -0.60183749 2.02045442 0 0 Z " fill="#ECFEFE" transform="translate(151,135)"/>
<path d="" fill="#FFFFFF" transform="translate(0,0)"/>
<path d="" fill="#FFFFFF" transform="translate(0,0)"/>
</svg>